<svg xmlns="http://www.w3.org/2000/svg" viewBox="0 0 512 512">
  <title>Sketcher app icon</title>
  <defs>
    <linearGradient id="background" x1="0" y1="0" x2="1" y2="1">
      <stop offset="0" stop-color="#1a3545"/>
      <stop offset="1" stop-color="#0c151d"/>
    </linearGradient>
    <linearGradient id="stroke" x1="0" y1="0" x2="1" y2="1">
      <stop offset="0" stop-color="#77d9ff"/>
      <stop offset="1" stop-color="#169fd9"/>
    </linearGradient>
  </defs>
  <rect x="20" y="20" width="472" height="472" rx="112" fill="url(#background)"/>
  <rect x="35" y="35" width="442" height="442" rx="98" fill="none" stroke="url(#stroke)" stroke-width="14"/>
  <g opacity=".14" stroke="#74d7ff" stroke-width="4">
    <path d="M80 344 256 244l176 100-176 100Z"/>
    <path d="M80 296 256 196l176 100M80 248l176-100 176 100M256 148v296"/>
  </g>
  <path d="M348 174c-25-21-55-31-91-31-65 0-108 33-108 83 0 43 29 67 91 81 42 10 57 19 57 37 0 19-17 30-45 30-34 0-66-13-96-39l-34 48c35 32 78 48 128 48 68 0 113-34 113-88 0-46-29-69-94-84-39-9-54-18-54-34 0-17 16-27 42-27 26 0 51 9 76 28Z" fill="#f1f8fb"/>
</svg>
